<svg xmlns:dc="http://purl.org/dc/elements/1.1/" xmlns:cc="http://creativecommons.org/ns#" xmlns:rdf="http://www.w3.org/1999/02/22-rdf-syntax-ns#" xmlns:svg="http://www.w3.org/2000/svg" xmlns="http://www.w3.org/2000/svg" viewBox="0 0 377.94666 377.94666" height="377.94666" width="377.94666" xml:space="preserve" id="svg2" version="1.1" transform="matrix(1, 0, 0, 1, 0, 0)"><metadata id="metadata8" fill="#000000"><rdf:RDF fill="#000000"><cc:Work rdf:about="" fill="#000000"><dc:format fill="#000000">image/svg+xml</dc:format><dc:type rdf:resource="http://purl.org/dc/dcmitype/StillImage" fill="#000000"/></cc:Work></rdf:RDF></metadata><defs id="defs6" fill="#000000"><clipPath id="clipPath18" clipPathUnits="userSpaceOnUse" fill="#000000"><path id="path16" d="M 0,283.46 H 283.46 V 0 H 0 Z" fill="#000000"/></clipPath></defs><g transform="matrix(1.3333333,0,0,-1.3333333,0,377.94667)" id="g10"><g id="g12"><g clip-path="url(#clipPath18)" id="g14"><g transform="translate(212.2451,78.3057)" id="g20"><path id="path22" style="fill:#db7f67;fill-opacity:1;fill-rule:nonzero;stroke:none" d="m 0,0 c 0,-6.733 -5.317,-10.631 -11.688,-10.631 -5.675,0 -12.051,3.898 -12.051,10.631 v 92.127 h -0.353 L -59.173,20.552 c -2.482,-4.961 -5.67,-7.796 -11.336,-7.796 -5.67,0 -8.863,2.835 -11.341,7.796 l -35.08,71.575 h -0.352 V 0 c 0,-6.733 -6.381,-10.631 -12.047,-10.631 -6.375,0 -11.693,3.898 -11.693,10.631 v 123.658 c 0,7.09 3.898,14.529 15.591,14.529 8.859,0 12.399,-3.898 16.297,-11.694 l 38.625,-79.724 h 0.353 l 38.268,79.724 c 3.894,7.796 7.439,11.694 16.297,11.694 C -3.897,138.187 0,130.748 0,123.658 V 0 m -70.513,-59.886 c -68.1,0 -123.307,55.207 -123.307,123.308 0,68.1 55.207,123.307 123.307,123.307 68.101,0 123.307,-55.207 123.307,-123.307 0,-68.101 -55.206,-123.308 -123.307,-123.308 m 0,265.04 c -78.276,0 -141.732,-63.456 -141.732,-141.732 0,-78.277 63.456,-141.733 141.732,-141.733 78.277,0 141.733,63.456 141.733,141.733 0,78.276 -63.456,141.732 -141.733,141.732"/></g></g></g></g></svg>